<svg width="2761" height="1079" viewBox="0 0 2761 1079" fill="none" xmlns="http://www.w3.org/2000/svg">
<rect width="2761" height="1079" fill="white"/>
<path d="M1349.93 428.208C1341.96 443.365 1331.12 455.304 1315.62 462.203C1297.88 470.1 1281.03 466.349 1270.6 451.399C1266.17 445.192 1262.67 438.324 1260.23 431.03C1252.42 406.256 1255.89 382.119 1266.03 358.774C1272.54 343.807 1281.28 330.56 1295.1 321.734C1309.81 312.341 1325.18 309.038 1340.58 319.343C1350.3 325.846 1355.81 336.185 1359.5 347.368C1366.59 368.993 1364.3 390.377 1357.04 411.349C1355.67 415.308 1353.95 419.153 1352.23 422.996C1351.45 424.729 1350.67 426.465 1349.93 428.208Z" fill="#F65814"/>
<path d="M1424.91 387.9C1400.34 396.399 1383.57 414.583 1371.18 436.191C1362.84 451.795 1358.87 467.399 1360.66 484.207C1363.54 511.028 1381.23 525.909 1407 522.468C1414.89 521.332 1422.58 518.978 1429.79 515.484C1452.69 504.542 1468.07 485.635 1478.64 462.461C1484.97 448.544 1487.54 433.8 1484.57 418.316C1480.55 397.448 1467.24 385.044 1446.89 384.58C1439.43 384.394 1432 385.517 1424.91 387.9Z" fill="#F65814"/>
<path d="M1349.68 593.21C1342.75 571.103 1330.23 552.643 1307.12 539.414C1281.73 525.513 1252.24 523.397 1222.52 534.08C1188.85 546.256 1158.69 567.018 1134.81 594.448C1127.37 602.861 1120.37 611.773 1119.19 623.953C1117.03 647.075 1128.9 665.397 1152.42 671.917C1167.25 676.014 1182.48 678.68 1197.66 681.339L1202.8 682.239C1229.4 686.936 1250.53 700.303 1266.54 722.84C1273.29 732.311 1280.55 741.375 1288.29 749.988C1295.27 757.764 1303.64 763.94 1314.06 766.073C1334.05 770.185 1355.25 754.788 1359.45 732.56C1368.4 685.267 1363.94 638.714 1349.68 593.21Z" fill="#F65814"/>
<path d="M1438.4 655.109C1464.35 648.279 1482.96 631.506 1496.67 608.298C1502.68 597.987 1505.61 586.061 1505.07 574.028C1504.29 554.192 1493.66 540.532 1474.77 537.573C1465.75 536.056 1456.55 536.301 1447.62 538.295C1419.61 545.125 1399.62 563.585 1386.15 589.391C1380.57 600.209 1378.72 612.675 1380.92 624.727C1383.16 638.095 1389.69 648.279 1402.35 653.234C1413.88 657.74 1426.49 658.395 1438.4 655.109Z" fill="#F65814"/>
<path d="M1220.51 494.254C1213.25 508.017 1205.7 516.481 1195.5 522.09C1180.55 530.313 1166.59 528.335 1154.43 516.206C1140.36 502.168 1134.01 484.517 1132.83 464.732C1131.39 442.745 1137.21 420.903 1149.35 402.799C1163.12 381.655 1188.26 378.06 1208.1 394.197C1220.26 404.089 1226.37 417.491 1229.16 432.802C1233.02 454.565 1229.16 478.014 1220.51 494.254Z" fill="#F65814"/>
<path d="M566.56 634.998H436.572L554.366 339.799H284.636L264.949 453.877H374.601L254 749.111H540.742L566.56 634.998Z" fill="#F65814"/>
<path fill-rule="evenodd" clip-rule="evenodd" d="M620.772 544.661C620.501 507.002 630.102 469.971 648.551 437.516C666.655 405.222 692.646 378.428 723.912 359.824C755.187 340.866 790.814 330.978 827.052 331.197H845.128C881.325 330.98 916.908 340.869 948.135 359.824C979.387 378.461 1005.36 405.277 1023.45 437.585C1041.87 470.025 1051.47 507.027 1051.21 544.661C1051.45 582.162 1041.85 619.027 1023.45 651.325C1005.35 683.605 979.377 710.396 948.135 729.017C916.908 747.971 881.325 757.86 845.128 757.644H827.584C791.261 757.864 755.548 747.977 724.178 729.017C692.857 710.447 666.799 683.678 648.617 651.393C630.137 619.099 620.51 582.198 620.772 544.661ZM746.324 544.661C746.242 560.826 750.437 576.706 758.453 590.578C766.369 604.574 777.673 616.19 791.249 624.28C804.731 632.506 820.11 636.804 835.758 636.719C851.517 636.83 867.014 632.539 880.616 624.298C894.172 616.258 905.439 604.656 913.279 590.664C921.209 576.711 925.348 560.799 925.258 544.61C925.375 528.292 921.236 512.244 913.279 498.159C905.451 484.14 894.182 472.513 880.616 464.457C867.035 456.238 851.571 451.949 835.841 452.036C820.188 451.966 804.809 456.282 791.332 464.526C777.69 472.625 766.332 484.279 758.386 498.331C750.378 512.329 746.208 528.323 746.324 544.592V544.661Z" fill="#F65814"/>
<path d="M1563.95 339.799L1553.5 441.955H1652.22V754.238L1775.58 744.535L1776.11 441.955H1854.57V339.799H1563.95Z" fill="#F65814"/>
<path d="M1931.8 339.798L2168.19 339.247L2181.85 452.792H2055.21V498.262H2139.68V595.291H2055.21V636.185H2198.83L2177.53 749.73H1931.8V339.798Z" fill="#F65814"/>
<path d="M2373.81 350.121L2249.85 339.799V754.874H2489.47L2507 637.321H2373.81V350.121Z" fill="#F65814"/>
</svg>
