<svg width="32" height="33" viewBox="0 0 32 33" fill="none" xmlns="http://www.w3.org/2000/svg">
<rect y="0.844238" width="32" height="32" rx="16" fill="#F65814"/>
<path d="M17.7514 11.6822C17.3828 12.3829 16.882 12.9349 16.1654 13.2538C15.3451 13.6188 14.5664 13.4454 14.084 12.7543C13.8792 12.4674 13.7176 12.1499 13.6048 11.8127C13.2438 10.6674 13.4043 9.55162 13.8728 8.47239C14.1739 7.78047 14.5779 7.16808 15.2169 6.76009C15.8966 6.32585 16.607 6.17315 17.319 6.64954C17.7683 6.95017 18.0233 7.42815 18.1938 7.9451C18.5218 8.9448 18.4158 9.93337 18.0802 10.9028C18.0167 11.0859 17.9371 11.2636 17.8576 11.4413C17.8217 11.5214 17.7858 11.6017 17.7514 11.6822Z" fill="white"/>
<path d="M21.2176 9.81886C20.0817 10.2117 19.3067 11.0524 18.7338 12.0513C18.3482 12.7726 18.1646 13.494 18.2476 14.271C18.3805 15.5109 19.1984 16.1988 20.3897 16.0398C20.7545 15.9872 21.1097 15.8784 21.4434 15.7169C22.5018 15.211 23.213 14.337 23.7015 13.2657C23.9941 12.6223 24.1132 11.9407 23.9757 11.225C23.7898 10.2603 23.1746 9.68684 22.2337 9.66536C21.8891 9.65678 21.5455 9.70868 21.2176 9.81886Z" fill="white"/>
<path d="M17.7399 19.31C17.4196 18.2881 16.8405 17.4347 15.7722 16.8231C14.5986 16.1805 13.2353 16.0827 11.8613 16.5766C10.3049 17.1394 8.9105 18.0992 7.80679 19.3673C7.46271 19.7562 7.13936 20.1682 7.08483 20.7313C6.98498 21.8001 7.53336 22.6472 8.62092 22.9486C9.30632 23.138 10.0103 23.2612 10.7123 23.3841L10.9496 23.4258C12.1793 23.6429 13.1562 24.2608 13.8966 25.3027C14.2084 25.7405 14.5441 26.1595 14.902 26.5577C15.2246 26.9172 15.6117 27.2027 16.0932 27.3013C17.0172 27.4914 17.9972 26.7796 18.1915 25.752C18.6055 23.5657 18.3989 21.4136 17.7399 19.31Z" fill="white"/>
<path d="M21.8413 22.1716C23.041 21.8558 23.9012 21.0804 24.5348 20.0075C24.8128 19.5309 24.9481 18.9795 24.9234 18.4233C24.8873 17.5063 24.3958 16.8748 23.5225 16.738C23.1059 16.6679 22.6802 16.6792 22.2675 16.7714C20.9726 17.0872 20.0487 17.9405 19.4258 19.1335C19.1678 19.6336 19.0825 20.2099 19.1838 20.7671C19.2875 21.385 19.5894 21.8558 20.1746 22.0849C20.7078 22.2932 21.2906 22.3235 21.8413 22.1716Z" fill="white"/>
<path d="M11.7684 14.7354C11.4327 15.3717 11.084 15.763 10.6125 16.0223C9.92121 16.4024 9.27605 16.311 8.71384 15.7503C8.06331 15.1013 7.76992 14.2853 7.71539 13.3707C7.6486 12.3543 7.91784 11.3445 8.47882 10.5076C9.11553 9.53016 10.2776 9.36394 11.1946 10.1099C11.7568 10.5672 12.0395 11.1868 12.1685 11.8946C12.3467 12.9007 12.1685 13.9847 11.7684 14.7354Z" fill="white"/>
</svg>
